<svg width="253" height="252" fill="none" xmlns="http://www.w3.org/2000/svg">
  <rect x="90.64" width="76.696" height="12" rx="6" fill="#000"/>
  <rect x="163.352" y="24" width="47.81" height="12" rx="6" fill="#000"/>
  <rect x="42.83" y="24" width="116.538" height="12" rx="6" fill="#000"/>
  <rect x="19.921" y="48" width="72.712" height="12" rx="6" fill="#000"/>
  <rect x="96.617" y="48" width="69.723" height="12" rx="6" fill="#000"/>
  <rect x="197.217" y="48" width="34.862" height="12" rx="6" fill="#000"/>
  <rect x="127.494" y="72" width="61.755" height="12" rx="6" fill="#000"/>
  <rect y="72" width="122.514" height="12" rx="6" fill="#000"/>
  <rect x="209.17" y="72" width="42.83" height="12" rx="6" fill="#000"/>
  <path d="M56.775 102a6 6 0 016-6h32.822a6 6 0 110 12H62.775a6 6 0 01-6-6zM147.415 102a6 6 0 016-6h29.834a6 6 0 110 12h-29.834a6 6 0 01-6-6zM202.198 102a6 6 0 016-6H246a6 6 0 110 12h-37.802a6 6 0 01-6-6zM0 102a6 6 0 016-6h33.818a6 6 0 110 12H6a6 6 0 01-6-6zM91.636 126a6 6 0 016-6h77.645a6 6 0 010 12H97.636a6 6 0 01-6-6zM56.775 126a6 6 0 016-6h19.873a6 6 0 110 12H62.775a6 6 0 01-6-6zM225.107 126a6 6 0 016-6H246a6 6 0 110 12h-14.893a6 6 0 01-6-6zM0 126a6 6 0 016-6h11.905a6 6 0 110 12H6a6 6 0 01-6-6zM151.399 150a6 6 0 016-6h29.834a6 6 0 110 12h-29.834a6 6 0 01-6-6zM56.775 150a6 6 0 016-6h78.64a6 6 0 110 12h-78.64a6 6 0 01-6-6zM211.162 150a6 6 0 016-6H246a6 6 0 110 12h-28.838a6 6 0 01-6-6zM0 150a6 6 0 016-6h14.893a6 6 0 110 12H6a6 6 0 01-6-6zM149.407 174a6 6 0 016-6h8.917a6 6 0 110 12h-8.917a6 6 0 01-6-6zM174.308 174a6 6 0 016-6H246a6 6 0 110 12h-65.692a6 6 0 01-6-6zM0 174a6 6 0 016-6h44.775a6 6 0 110 12H6a6 6 0 01-6-6zM61.755 174a6 6 0 016-6h53.739a6 6 0 110 12h-53.74a6 6 0 01-6-6zM170.324 198a6 6 0 016-6h46.767a6 6 0 110 12h-46.767a6 6 0 01-6-6zM19.921 198a6 6 0 016-6h46.767a6 6 0 110 12H25.92a6 6 0 01-6-6zM42.83 222a6 6 0 016-6h50.751a6 6 0 110 12H48.83a6 6 0 01-6-6zM143.431 222a6 6 0 016-6h52.743a6 6 0 110 12h-52.743a6 6 0 01-6-6zM65.74 246a6 6 0 016-6H175.28a6 6 0 010 12H71.739a6 6 0 01-6-6z" fill="#000"/>
  <path d="M0 246a6 6 0 016-6h44.775a6 6 0 110 12H6a6 6 0 01-6-6zM189.249 246a6 6 0 016-6H246a6 6 0 110 12h-50.751a6 6 0 01-6-6zM112.553 222a6 6 0 016-6h11.905a6 6 0 110 12h-11.905a6 6 0 01-6-6zM88.648 198a6 6 0 016-6h60.712a6 6 0 010 12H94.648a6 6 0 01-6-6zM217.138 222a6 6 0 016-6H246a6 6 0 110 12h-22.862a6 6 0 01-6-6zM235.067 198a6 6 0 016-6H246a6 6 0 110 12h-4.933a6 6 0 01-6-6zM0 222a6 6 0 016-6h20.87a6 6 0 110 12H6a6 6 0 01-6-6zM0 198a6 6 0 016-6h.949a6 6 0 110 12H6a6 6 0 01-6-6zM34 150a6 6 0 016-6h3a6 6 0 110 12h-3a6 6 0 01-6-6zM33 126a6 6 0 016-6h4a6 6 0 110 12h-4a6 6 0 01-6-6zM190 126a6 6 0 016-6h16a6 6 0 110 12h-16a6 6 0 01-6-6zM112 102a6 6 0 016-6h16a6 6 0 110 12h-16a6 6 0 01-6-6zM173 54a6 6 0 016-6h6a6 6 0 110 12h-6a6 6 0 01-6-6zM0 30a6 6 0 016-6h25a6 6 0 010 12H6a6 6 0 01-6-6zM0 54a6 6 0 016-6h1a6 6 0 010 12H6a6 6 0 01-6-6zM240 54a6 6 0 016-6h1a6 6 0 110 12h-1a6 6 0 01-6-6zM218 30a6 6 0 016-6h23a6 6 0 110 12h-23a6 6 0 01-6-6zM178 6a6 6 0 016-6h63a6 6 0 110 12h-63a6 6 0 01-6-6zM0 6a6 6 0 016-6h72a6 6 0 010 12H6a6 6 0 01-6-6z" fill="#A6B0B7"/>
</svg>